<svg width="41" height="41" viewBox="0 0 41 41" fill="none" xmlns="http://www.w3.org/2000/svg">
<g opacity="0.6" filter="url(#filter0_d_1_342)">
<path d="M36.7661 29.5683L23.9759 16.778L36.7661 3.98779L33.5686 0.790235L20.7783 13.5805L7.98809 0.790235L4.79053 3.98779L17.5808 16.778L4.79053 29.5683L7.98809 32.7658L20.7783 19.9756L33.5686 32.7658L36.7661 29.5683Z" fill="white"/>
<path d="M23.6223 16.4245L23.2688 16.778L23.6223 17.1316L36.059 29.5683L33.5686 32.0587L21.1319 19.622L20.7783 19.2685L20.4248 19.622L7.98808 32.0587L5.49763 29.5683L17.9343 17.1316L18.2879 16.778L17.9343 16.4245L5.49763 3.98779L7.98808 1.49734L20.4248 13.934L20.7783 14.2876L21.1319 13.934L33.5686 1.49734L36.059 3.98779L23.6223 16.4245Z" stroke="black"/>
</g>
<defs>
<filter id="filter0_d_1_342" x="0.790527" y="0.790222" width="39.9756" height="39.9756" filterUnits="userSpaceOnUse" color-interpolation-filters="sRGB">
<feFlood flood-opacity="0" result="BackgroundImageFix"/>
<feColorMatrix in="SourceAlpha" type="matrix" values="0 0 0 0 0 0 0 0 0 0 0 0 0 0 0 0 0 0 127 0" result="hardAlpha"/>
<feOffset dy="4"/>
<feGaussianBlur stdDeviation="2"/>
<feComposite in2="hardAlpha" operator="out"/>
<feColorMatrix type="matrix" values="0 0 0 0 0 0 0 0 0 0 0 0 0 0 0 0 0 0 0.25 0"/>
<feBlend mode="normal" in2="BackgroundImageFix" result="effect1_dropShadow_1_342"/>
<feBlend mode="normal" in="SourceGraphic" in2="effect1_dropShadow_1_342" result="shape"/>
</filter>
</defs>
</svg>
